<svg xmlns="http://www.w3.org/2000/svg" viewBox="0 0 34.62 35.85"><defs><style>.cls-1{fill:#fff;fill-rule:evenodd;}</style></defs><g id="Layer_2" data-name="Layer 2"><g id="Layer_1-2" data-name="Layer 1"><path class="cls-1" d="M34.62,3V26.65a3,3,0,0,1-3,3H16.41l-4.95,5.72a1.64,1.64,0,0,1-2.82-1.13l-.22-4.59H3a3,3,0,0,1-3-3V3A3,3,0,0,1,.87.87L.93.82A3,3,0,0,1,3,0H31.64a3,3,0,0,1,3,3ZM9.79,9.47H19.86A1.56,1.56,0,0,1,21.42,11v1.66l5-3v9.41l-5-2.68V18.6a1.56,1.56,0,0,1-1.56,1.55H9.79A1.56,1.56,0,0,1,8.23,18.6V11A1.56,1.56,0,0,1,9.79,9.47Z"/></g></g></svg>